# xmcd
#
# Track frame offsets:
#	150
#	11400
#	25625
#	39035
#	52330
#	69905
#	85900
#	101122
#	113740
#	128558
#	143243
#	157108
#	170513
#	185083
#	201240
#	222060
#	234893
#	252740
#	269955
#	283320
#	299543
#	309903
#	322975
#
# Disc length: 4445 seconds
#
# Revision: 1
# Processed by: cddbd v1.5.2PL0 Copyright (c) Steve Scherf et al.
# Submitted via: EasyCDDAExtractor 5.0.6
#
DISCID=58115b17
DTITLE=Various Artist - Best of SA Country Vol 2 Disc 2
DYEAR=2007
DGENRE=Country
TTITLE0=Joanna Field - When the Boy in Your Arms
TTITLE1=Lance James - Red Wine, Blue Memories
TTITLE2=Barbra Ray - Let Me Be There
TTITLE3=Matt Hurter - The Littlest Cowboy
TTITLE4=Paul Greef - The Birth of a Pedal Steel Guitar
TTITLE5=Jody Wayne - The Wonder of Your Love
TTITLE6=Maria Tyl - Welcome To My World
TTITLE7=Vangie Coker - We Will Make Love
TTITLE8=Maritza - Love Will find a way
TTITLE9=Charles Dicks - The End of the World
TTITLE10=Lee Magnum - Don't Let Me Cross Over
TTITLE11=Clive Bruce - Sometimes I get Lucky
TTITLE12=Bobby Angle - Mama Don't Let Your Babies Grow Up To Be Cowboys
TTITLE13=Ken Mullen - Maggie
TTITLE14=Kenny Oliver - Mama Jean
TTITLE15=Charles Jacobie - Lonely Girl
TTITLE16=Gene and Duane - She Will
TTITLE17=OTH - One Step over the Line
TTITLE18=Louis Shawson - Memory of You
TTITLE19=Dave Weston - Feel the Country
TTITLE20=Virginia Lee - Mr Fire Eyes
TTITLE21=Ray Chord - Four Walls
TTITLE22=Buddy Masango - From a Jack to a King
EXTD=
EXTT0=
EXTT1=
EXTT2=
EXTT3=
EXTT4=
EXTT5=
EXTT6=
EXTT7=
EXTT8=
EXTT9=
EXTT10=
EXTT11=
EXTT12=
EXTT13=
EXTT14=
EXTT15=
EXTT16=
EXTT17=
EXTT18=
EXTT19=
EXTT20=
EXTT21=
EXTT22=
PLAYORDER=
